<svg xmlns="http://www.w3.org/2000/svg" viewBox="0 0 512 512"><path d="M170.479 159.141l-50.583.071-.139-85.24a4.318 4.318 0 014.312-4.324l41.947-.059a4.318 4.318 0 014.324 4.312l.139 85.24z" fill="#ffb125"/><path d="M170.341 73.901a4.318 4.318 0 00-4.324-4.312l-25.01.035c2.218.178 3.969 2.013 3.973 4.277l.139 85.24-25.222.035v.035l50.583-.071-.139-85.239z" fill="#ff901d"/><path d="M254.124 68.044L118.628 195.686l.271 194.046a9.269 9.269 0 009.281 9.256l252.811-.353a9.269 9.269 0 009.256-9.281l-.271-194.046L254.124 68.044z" fill="#e1effb"/><path d="M389.976 195.307L254.125 68.044l-22.343 21.048 113.384 106.215.271 194.046a9.268 9.268 0 01-9.255 9.281h44.811a9.269 9.269 0 009.256-9.281l-.273-194.046z" fill="#ccdfed"/><path d="M437.773 238.065a18.57 18.57 0 01-12.761-5.035L254.127 72.95 83.69 233.507c-7.491 7.057-19.284 6.704-26.339-.786-7.057-7.49-6.705-19.283.786-26.339L241.315 33.823c7.161-6.747 18.335-6.762 25.515-.036l183.659 172.047c7.51 7.035 7.895 18.827.859 26.336a18.58 18.58 0 01-13.575 5.895z" fill="#ff4c4c"/><path d="M451.348 209.76a18.583 18.583 0 01-13.575 5.894 18.57 18.57 0 01-12.761-5.035L254.127 50.538 83.69 211.095c-7.491 7.057-19.284 6.704-26.339-.786a18.59 18.59 0 01-1.31-1.56c-5.369 7.117-5.009 17.264 1.31 23.971 7.054 7.49 18.848 7.843 26.339.786L254.127 72.95l170.885 160.08a18.57 18.57 0 0012.761 5.035 18.581 18.581 0 0013.575-5.894c6.288-6.711 6.631-16.833 1.277-23.933a18.81 18.81 0 01-1.277 1.522z" fill="#f33939"/><path d="M289.175 228.014l-69.655.097a5.918 5.918 0 00-5.909 5.926l.23 164.83 81.49-.114-.23-164.83a5.918 5.918 0 00-5.926-5.909z" fill="#2d5871"/><path d="M295.101 233.924a5.918 5.918 0 00-5.926-5.909l-39.354.055a5.92 5.92 0 014.149 5.64l.23 165.102 41.131-.058-.23-164.83z" fill="#1d4859"/><path d="M466.909 315.553l-102.666 68.709-30.597-1.717-1.198-12.043c-1.783-17.927-15.586-32.315-33.424-34.839l-81.979-9.439a146.934 146.934 0 01-53.605-18.657 146.927 146.927 0 00-74.19-20.106H30.145v134.916l156.213 59.155c5.904 1.667 12.104 2.166 18.163 1.208l.109-.017 157.27-22.67a69.585 69.585 0 0033.013-14.792l101.646-91.419c9.122-8.1 10.813-21.713 3.95-31.8-7.508-11.034-22.52-13.934-33.6-6.489z" fill="#fed9a8"/><path d="M501.851 324.285l-100.469 84.571c-9.508 7.755-25.314 12.857-37.43 14.792l-159.321 11.389a4.106 4.106 0 01-.109.017c-6.059.957-12.26.458-18.163-1.208L30.145 374.691v47.688l156.213 59.155a44.76 44.76 0 009.023 1.588 42.56 42.56 0 002.287.098 39.976 39.976 0 006.962-.495l157.27-22.67a69.718 69.718 0 0013.263-3.486 69.558 69.558 0 0019.751-11.306l101.646-91.419c8.463-7.516 10.517-19.772 5.291-29.559z" fill="#f4c892"/><path d="M50.066 468.205H26.68c-10.699 0-19.372-8.673-19.372-19.372V275.772c0-10.699 8.673-19.372 19.372-19.372h23.386c10.699 0 19.372 8.673 19.372 19.372v173.061c0 10.699-8.673 19.372-19.372 19.372z" fill="#2d5871"/><path d="M50.066 256.4H26.68c-1.315 0-2.598.134-3.839.384 8.859 1.782 15.532 9.604 15.532 18.988v173.061c0 9.384-6.673 17.206-15.532 18.988 1.241.25 2.525.384 3.839.384h23.386c10.699 0 19.372-8.673 19.372-19.372V275.772c0-10.699-8.673-19.372-19.372-19.372z" fill="#1d4859"/><path d="M506.552 317.933c-9.739-14.312-29.351-18.1-43.707-8.452l-65.34 43.728-.19-136.11 22.7 21.265a25.843 25.843 0 0017.729 7.009h.039a26.04 26.04 0 0018.898-8.205c4.737-5.057 7.222-11.655 6.996-18.581-.226-6.926-3.136-13.349-8.193-18.086l-43.035-40.314a7.31 7.31 0 00-9.993 10.667l43.035 40.314a11.25 11.25 0 013.577 7.895 11.248 11.248 0 01-3.055 8.111 11.215 11.215 0 01-8.252 3.582h-.017c-2.883 0-5.63-1.086-7.737-3.06l-35.026-32.811-.002-.002L259.124 67.616a7.308 7.308 0 00-10.007.014L113.624 195.268l-.002.002-34.943 32.917a11.275 11.275 0 01-8.103 3.076 11.245 11.245 0 01-7.905-3.556 11.245 11.245 0 01-3.076-8.102 11.25 11.25 0 013.554-7.905L246.326 39.143c4.342-4.091 11.154-4.101 15.507-.021L369 139.514a7.308 7.308 0 009.993-10.667L271.827 28.455c-9.973-9.344-25.576-9.323-35.523.049l-58.639 55.24-.016-9.853a11.546 11.546 0 00-3.417-8.216 11.548 11.548 0 00-8.209-3.394h-.017l-41.947.059a11.548 11.548 0 00-8.216 3.417 11.55 11.55 0 00-3.393 8.227l.116 71.087-59.439 55.993c-5.044 4.751-7.935 11.182-8.142 18.108s2.296 13.518 7.047 18.56c4.75 5.044 11.181 7.936 18.108 8.143.265.008.53.012.795.012 6.635 0 12.918-2.49 17.767-7.06l22.649-21.336.09 64.291a154 154 0 00-22.19-1.627H76.746v-4.382c0-14.711-11.969-26.68-26.68-26.68H26.68C11.969 249.092 0 261.06 0 275.772V390.29a7.308 7.308 0 0014.616 0V275.772c0-6.652 5.412-12.064 12.064-12.064h23.385c6.652 0 12.064 5.412 12.064 12.064v173.061c0 6.652-5.412 12.064-12.064 12.064H26.68c-6.652 0-12.064-5.412-12.064-12.064v-12.788a7.308 7.308 0 00-14.616 0v12.788c0 14.711 11.969 26.68 26.68 26.68h23.385c14.711 0 26.68-11.968 26.68-26.68v-.993l107.024 40.528c.198.075.399.141.603.198 4.653 1.314 9.304 1.973 13.896 1.973 2.484 0 4.951-.193 7.393-.579l157.281-22.672.11-.017a76.996 76.996 0 0036.48-16.346c.091-.074.181-.151.268-.23l101.611-91.388c11.833-10.505 14.042-28.292 5.141-41.374zM163.037 76.902l.034 20.59-35.912 33.83-.089-54.371 35.967-.049zm-36.976 207.715l-.113-80.878L254.141 82.976l128.538 120.412.223 159.593-20.691 13.848L340.3 375.6l-.579-5.82a46.279 46.279 0 00-37.18-40.922l-.132-94.945c-.01-7.286-5.942-13.207-13.227-13.207h-.018l-69.654.098a13.137 13.137 0 00-9.347 3.887 13.137 13.137 0 00-3.861 9.357l.116 82.781a138.887 138.887 0 01-39.288-15.568 153.941 153.941 0 00-4.654-2.611c-.61-.329-1.23-.638-1.845-.959-.952-.497-1.902-.997-2.864-1.474-.766-.38-1.541-.74-2.313-1.107-.819-.389-1.637-.782-2.462-1.157-.84-.381-1.687-.744-2.533-1.11-.773-.334-1.546-.67-2.324-.991-.87-.359-1.745-.704-2.621-1.047-.777-.304-1.555-.606-2.336-.898-.867-.324-1.738-.637-2.611-.944a152.085 152.085 0 00-7.679-2.483c-.775-.228-1.549-.456-2.328-.672a153.144 153.144 0 00-3.062-.81c-.479-.123-.955-.262-1.437-.381zm94.86-49.199l66.874-.094.128 91.705-61.125-7.037-5.759-.663-.118-83.911zM491.673 348.41l-101.511 91.298a62.364 62.364 0 01-29.361 13.122l-157.213 22.662-.098.015-.109.017c-4.763.754-9.723.436-14.744-.942L76.746 432.21V294.77h12.505a139.552 139.552 0 0132.661 3.888c1.265.305 2.527.619 3.783.959l.329.092c1.259.344 2.513.707 3.763 1.086.224.068.449.135.672.204 1.33.411 2.654.84 3.971 1.29l.407.142a139.368 139.368 0 018.579 3.282 139.403 139.403 0 014.092 1.797c1.276.586 2.543 1.194 3.802 1.819.148.073.297.145.445.219 1.23.615 2.45 1.252 3.663 1.904.229.123.457.249.686.373 1.224.667 2.441 1.347 3.646 2.052 17.391 10.173 36.323 16.762 56.271 19.585.063.009.125.017.188.024l81.881 9.427a31.695 31.695 0 0126.101 22.994c.472 1.718.804 3.496.986 5.319l.325 3.27-153.46-13.445a7.307 7.307 0 10-1.276 14.56l162.242 14.215c.039.003.077.002.115.005s.075.009.114.012l30.597 1.717c.137.008.273.011.409.011.145 0 .288-.023.432-.032.163-.01.326-.016.488-.036.218-.028.431-.075.645-.122.153-.034.307-.059.457-.103.234-.067.459-.158.686-.249.122-.049.248-.086.368-.142.341-.158.673-.34.989-.552l25.972-17.381.003-.003 76.702-51.332c7.717-5.187 18.251-3.152 23.482 4.536 4.782 7.026 3.595 16.581-2.794 22.255z"/></svg>