<svg viewBox="0 0 513.64 513.64" xmlns="http://www.w3.org/2000/svg" xmlns:xlink="http://www.w3.org/1999/xlink"><style>:root&gt;svg{display:none}:root&gt;svg:target{display:block}</style><svg viewBox="0 0 512 512" id="email" xmlns="http://www.w3.org/2000/svg"><path d="M339.392 258.624L512 367.744V144.896zM0 144.896v222.848l172.608-109.12zM480 80H32C16.032 80 3.36 91.904.96 107.232L256 275.264l255.04-168.032C508.64 91.904 495.968 80 480 80zM310.08 277.952l-45.28 29.824a15.983 15.983 0 01-8.8 2.624c-3.072 0-6.112-.864-8.8-2.624l-45.28-29.856L1.024 404.992C3.488 420.192 16.096 432 32 432h448c15.904 0 28.512-11.808 30.976-27.008L310.08 277.952z"/></svg><svg viewBox="0 0 511.925 511.925" id="home" xmlns="http://www.w3.org/2000/svg"><path d="M430.772 276.2v191.784c0 8.324-6.771 15.096-15.096 15.096h-11.63c-4.143 0-7.5 3.357-7.5 7.5s3.357 7.5 7.5 7.5h11.63c16.595 0 30.096-13.501 30.096-30.096v-176.17l15.266 15.891c6.894 7.176 18.337 7.298 25.381.254l20.338-20.339c6.792-6.79 6.904-17.95.25-24.877L276.185 22.464c-11.035-11.487-29.402-11.497-40.445 0L4.917 262.743c-6.653 6.926-6.541 18.086.25 24.877l20.339 20.339c7.038 7.036 18.479 6.93 25.382-.254l15.264-15.889v36.432c0 4.143 3.358 7.5 7.5 7.5s7.5-3.357 7.5-7.5v-52.047L250.26 100.163a7.902 7.902 0 0111.404 0L430.772 276.2zm65.378.812l-20.339 20.34c-1.33 1.095-2.649 1.082-3.957-.04L272.482 89.773l-.002-.002-.031-.031c-9.023-9.358-23.99-9.354-33.006.032l-171.2 178.213-.011.013-28.161 29.314c-1.308 1.122-2.628 1.135-3.958.039l-20.339-20.339a2.785 2.785 0 01-.039-3.878L246.557 32.855c5.139-5.349 13.674-5.348 18.811.001l230.821 240.277a2.784 2.784 0 01-.039 3.879z"/><path d="M368.897 483.079h-44.493V398.16c0-37.738-30.703-68.44-68.442-68.44-37.738 0-68.441 30.702-68.441 68.44v84.919H96.248c-8.324 0-15.096-6.771-15.096-15.096V363.247c0-4.143-3.358-7.5-7.5-7.5s-7.5 3.357-7.5 7.5v104.736c0 16.595 13.501 30.096 30.096 30.096h272.649c4.143 0 7.5-3.357 7.5-7.5s-3.357-7.5-7.5-7.5zm-166.376-84.918c0-29.467 23.974-53.44 53.441-53.44s53.441 23.974 53.441 53.44v84.919H202.521z"/></svg><svg viewBox="0 0 513.64 513.64" id="phone-call" xmlns="http://www.w3.org/2000/svg"><path d="M499.66 376.96l-71.68-71.68c-25.6-25.6-69.12-15.359-79.36 17.92-7.68 23.041-33.28 35.841-56.32 30.72-51.2-12.8-120.32-79.36-133.12-133.12-7.68-23.041 7.68-48.641 30.72-56.32 33.28-10.24 43.52-53.76 17.92-79.36l-71.68-71.68c-20.48-17.92-51.2-17.92-69.12 0L18.38 62.08c-48.64 51.2 5.12 186.88 125.44 307.2s256 176.641 307.2 125.44l48.64-48.64c17.921-20.48 17.921-51.2 0-69.12z"/></svg><svg viewBox="0 0 513.597 513.597" id="place" xmlns="http://www.w3.org/2000/svg"><path d="M263.278.107C158.977-3.408 73.323 80.095 73.323 183.602c0 117.469 112.73 202.72 175.915 325.322 3.208 6.225 12.169 6.233 15.388.009 57.16-110.317 154.854-184.291 172.959-290.569C456.331 108.387 374.776 3.866 263.278.107zm-6.355 279.666c-53.113 0-96.171-43.059-96.171-96.171s43.059-96.171 96.171-96.171c53.113 0 96.172 43.059 96.172 96.171s-43.059 96.171-96.172 96.171z"/></svg><svg viewBox="0 0 512 512" id="right-arrow" xmlns="http://www.w3.org/2000/svg"><path d="M506.134 241.843l-.018-.019-104.504-104c-7.829-7.791-20.492-7.762-28.285.068-7.792 7.829-7.762 20.492.067 28.284L443.558 236H20c-11.046 0-20 8.954-20 20s8.954 20 20 20h423.557l-70.162 69.824c-7.829 7.792-7.859 20.455-.067 28.284 7.793 7.831 20.457 7.858 28.285.068l104.504-104 .018-.019c7.833-7.818 7.808-20.522-.001-28.314z"/></svg></svg>